<svg width="12" height="11" viewBox="0 0 12 11" fill="none" xmlns="http://www.w3.org/2000/svg">
<path d="M5.99999 5.74729L2.08478 3.30382V7.9152H6.53532V9.24022H2.08478C1.71557 9.24022 1.40243 9.11168 1.14537 8.85462C0.888299 8.59755 0.759766 8.28441 0.759766 7.9152V2.08478C0.759766 1.71557 0.888299 1.40243 1.14537 1.14537C1.40243 0.888299 1.71557 0.759766 2.08478 0.759766H9.9152C10.2844 0.759766 10.5975 0.888299 10.8546 1.14537C11.1117 1.40243 11.2402 1.71557 11.2402 2.08478V5.74729H9.9152V3.30382L5.99999 5.74729ZM5.99999 4.53532L9.9152 2.08478H2.08478L5.99999 4.53532ZM9.60598 10.7685L8.81412 9.96957L9.53097 9.24022H7.53532V8.0989H9.53097L8.80162 7.36957L9.60598 6.57064L11.7049 8.66957L9.60598 10.7685ZM2.08478 3.30382V8.825V5.74729V5.77065V2.08478V3.30382Z" fill="#747474"/>
</svg>
