<svg width="27" height="26" viewBox="0 0 27 26" fill="none" xmlns="http://www.w3.org/2000/svg">
<path d="M2.73512 21.8903C2.84058 22.8504 3.60324 23.6124 4.56311 23.7203C6.89965 23.9829 9.33929 24.3149 11.8486 24.3149C14.3578 24.3149 16.7975 23.9829 19.134 23.7203C20.0939 23.6124 20.8565 22.8504 20.962 21.8903C21.2176 19.5627 21.5304 17.1326 21.5304 14.6331C21.5304 12.1336 21.2176 9.70347 20.962 7.3759C20.8565 6.41577 20.0939 5.65377 19.134 5.54589C16.7975 5.28329 14.3578 4.95129 11.8486 4.95129C9.33929 4.95129 6.89965 5.28329 4.56311 5.54589C3.60324 5.65377 2.84058 6.41577 2.73512 7.3759C2.47947 9.70347 2.16675 12.1336 2.16675 14.6331C2.16675 17.1326 2.47947 19.5627 2.73512 21.8903Z" fill="white"/>
<path d="M10.4245 4.9845C8.41491 5.07501 6.4552 5.33317 4.56311 5.54582C3.60324 5.6537 2.84058 6.4157 2.73512 7.37583C2.47947 9.7034 2.16675 12.1336 2.16675 14.633C2.16675 17.1325 2.47947 19.5627 2.73512 21.8902C2.84058 22.8504 3.60324 23.6124 4.56311 23.7203C6.89965 23.9828 9.33929 24.3148 11.8486 24.3148C14.3578 24.3148 16.7975 23.9829 19.134 23.7203C20.0939 23.6124 20.8565 22.8504 20.962 21.8902C21.1592 20.0951 21.3903 18.2389 21.4857 16.3369" stroke="#8386D9" stroke-width="3" stroke-linecap="round"/>
<path d="M18.8504 3.00701L12.2702 10.4734L11.3687 14.7132C11.2237 15.3954 11.9348 16.041 12.6008 15.8316L16.8201 14.5051L23.6167 7.35351C24.7455 6.16571 24.5486 4.17903 23.1822 2.97044C21.8478 1.79016 19.9084 1.80653 18.8504 3.00701Z" fill="#D7E0FF"/>
<path d="M18.8504 3.00701L12.2702 10.4734L11.3687 14.7132C11.2237 15.3954 11.9348 16.041 12.6008 15.8316L16.8201 14.5051L23.6167 7.35351C24.7455 6.16571 24.5486 4.17903 23.1822 2.97044C21.8478 1.79016 19.9084 1.80653 18.8504 3.00701Z" stroke="#8386D9" stroke-width="3" stroke-linecap="round" stroke-linejoin="round"/>
</svg>
