<svg width="16" height="18" viewBox="0 0 16 18" fill="none" xmlns="http://www.w3.org/2000/svg">
<path d="M8 18C6.9 18 5.89167 17.725 4.975 17.175C4.05833 16.625 3.33333 15.9 2.8 15H0V13H2.1C2.05 12.6167 2.02083 12.2875 2.0125 12.0125C2.00417 11.7375 2 11.4 2 11H0V9H2C2 8.55 2.00417 8.17917 2.0125 7.8875C2.02083 7.59583 2.05 7.3 2.1 7H0V5H2.8C3.03333 4.6 3.29583 4.2375 3.5875 3.9125C3.87917 3.5875 4.21667 3.3 4.6 3.05L3 1.4L4.4 0L6.55 2.15C6.93333 2.01667 7.40833 1.95 7.975 1.95C8.54167 1.95 9.01667 2.01667 9.4 2.15L11.6 0L13 1.4L11.35 3.05C11.7333 3.3 12.0792 3.5875 12.3875 3.9125C12.6958 4.2375 12.9667 4.6 13.2 5H16V7H13.9C13.95 7.38333 13.9792 7.7 13.9875 7.95C13.9958 8.2 14 8.55 14 9H16V11H14C14 11.4 13.9958 11.7375 13.9875 12.0125C13.9792 12.2875 13.95 12.6167 13.9 13H16V15H13.2C12.6667 15.9 11.9417 16.625 11.025 17.175C10.1083 17.725 9.1 18 8 18ZM6 13H10V11H6V13ZM6 9H10V7H6V9Z" fill="#EFEDED"/>
</svg>
