<svg width="52" height="54" viewBox="0 0 52 54" fill="none" xmlns="http://www.w3.org/2000/svg">
<g filter="url(#filter0_d_63_16531)">
<path d="M37.8364 29.1274C37.8364 32.9819 36.8387 35.528 35.2667 38.1213L15.994 38.1213L8.85156 30.9789C7.91907 30.0464 8.1285 28.4825 9.27349 27.8282L15.994 23.988L15.994 9.00006C15.994 7.34321 17.3371 6.00006 18.994 6.00006L21.9879 6.00006C23.6448 6.00006 24.9879 7.34321 24.9879 9.00006L24.9879 18.9191C30.3788 19.4791 37.8364 21.4183 37.8364 29.1274Z" fill="#D7E0FF"/>
<path d="M35.2667 38.1213C36.8387 35.528 37.8364 32.9819 37.8364 29.1274C37.8364 21.4183 30.3788 19.4791 24.9879 18.9191L24.9879 9.00006C24.9879 7.34321 23.6448 6.00006 21.9879 6.00006L18.994 6.00006C17.3371 6.00006 15.994 7.34321 15.994 9.00006L15.994 23.988L9.27349 27.8282C8.1285 28.4825 7.91907 30.0464 8.85156 30.9789L15.994 38.1213" stroke="#4147D5" stroke-width="3" stroke-linecap="round" stroke-linejoin="round"/>
</g>
<defs>
<filter id="filter0_d_63_16531" x="0.765381" y="0.5" width="50.571" height="53.1216" filterUnits="userSpaceOnUse" color-interpolation-filters="sRGB">
<feFlood flood-opacity="0" result="BackgroundImageFix"/>
<feColorMatrix in="SourceAlpha" type="matrix" values="0 0 0 0 0 0 0 0 0 0 0 0 0 0 0 0 0 0 127 0" result="hardAlpha"/>
<feOffset dx="3" dy="5"/>
<feGaussianBlur stdDeviation="4.5"/>
<feComposite in2="hardAlpha" operator="out"/>
<feColorMatrix type="matrix" values="0 0 0 0 0.366163 0 0 0 0 0.39491 0 0 0 0 0.545833 0 0 0 0.08 0"/>
<feBlend mode="normal" in2="BackgroundImageFix" result="effect1_dropShadow_63_16531"/>
<feBlend mode="normal" in="SourceGraphic" in2="effect1_dropShadow_63_16531" result="shape"/>
</filter>
</defs>
</svg>
