<?xml version="1.0" encoding="UTF-8"?>
<svg id="_레이어_2" data-name="레이어 2" xmlns="http://www.w3.org/2000/svg" viewBox="0 0 168.52 35.91">
  <defs>
    <style>
      .cls-1 {
        fill: #E7E7E7;
      }
    </style>
  </defs>
  <g id="Layer_1" data-name="Layer 1">
    <g>
      <path class="cls-1" d="m96.56,33.71c-.09-1-.22-2-.23-3.01-.03-2.15.54-4.3-.66-6.42-1.98-1.48-3.51-3.35-5.09-5.19-.16-.19-.13-.31.02-.48.23-.26.44-.54.68-.8,1.11-1.21,2.15-2.49,3.47-3.48.74-1.53,1.02-3.22,1.21-4.9.26-2.28.89-4.44,2.01-6.46.28-.5.33-1.12.47-1.68.02-.08-.05-.22-.12-.26-.07-.04-.21-.03-.3.01-.09.04-.15.14-.23.22-1.25,1.4-2.48,2.82-3.76,4.21-1.15,1.26-2.36,2.46-3.52,3.72-1.44,1.57-2.71,3.27-3.82,5.08-.5.82-1.29,1.34-2.53.88-.24-.84-.43-1.68-.66-2.52-.45-1.66-1.44-3.06-2.23-4.55-1-1.88-2-3.75-2.63-5.79-.3-.97-.92-1.59-1.74-2.06-.67-.39-1.47-.3-2.02.22-.55.53-.95,1.17-1.06,1.95-.33,2.58-.68,5.16-.98,7.75-.3,2.56.27,4.95,1.58,7.15.7,1.17,1.54,2.27,2.33,3.38,1.62,2.28,1.86,4.83.26,7.89,1.55,1.18,3.07,2.45,4.69,3.58.95.66,1.88,1.35,2.87,1.93,1.4.82,2.99,1.09,4.55,1.44.61.14,1.23.26,1.82.38.42-.08.79-.14,1.15-.22.5-.1.99-.26,1.49-.32.93-.11,1.87-.17,2.81-.23.28-.02.38-.1.31-.4-.08-.34-.13-.69-.16-1.03Zm-8.86-11.52c-.55.37-1.3.98-2.09,1.71.32.53.6,1.04.84,1.45.14.25.27.47.36.63.14.3.13.66,0,.94-.11.24-.3.4-.54.46-.08.02-.16.03-.23.03-.39,0-.78-.23-.95-.59-.26-.47-.57-1.01-.9-1.56-.57.57-1.06,1.11-1.34,1.47-.25.32-.52.42-.71.44-.25.03-.49-.04-.7-.19-.2-.15-.61-.6-.04-1.49.39-.53,1-1.21,1.71-1.91-.44-.65-.92-1.29-1.42-1.89-.29-.48-.18-.88.04-1.09.28-.21.76-.44,1.43-.02.53.49,1.02,1.11,1.4,1.66.81-.69,1.58-1.28,2.29-1.74.23-.14.53-.16.8-.06.27.1.48.3.56.54.16.49-.15.95-.51,1.2Z"/>
      <path class="cls-1" d="m22.17,6.59c-.16-.18-.41-.37-.73-.57-.33-.2-.73-.39-1.2-.56-.48-.17-1.03-.25-1.67-.25s-1.19.07-1.65.21c-.46.14-.85.31-1.15.49-.31.18-.53.35-.68.51-.15.16-.23.24-.24.25l-.16.2.08.26c.34,1.14.51,1.29.51,2.46,0,1.53-.29,2.05-.88,3.54v.33c.2.72.36,1.43.47,2.12.11.69.16,1.4.16,2.14v.04c-1.05-1.62-1.74-2.54-2.1-4.76v-.12l-.12-.12c-1.66-1.9-2.63-3.25-2.91-6.04l-.04-.24-.26-.12s-.21-.11-.55-.23-.79-.19-1.36-.19h-.33c-.31-.19-.69-.36-1.13-.5-.44-.14-.97-.21-1.58-.21s-1.19.07-1.65.21c-.46.14-.85.31-1.15.49-.31.18-.53.35-.68.51-.15.16-.23.24-.24.25l-.16.2.08.26c.19.61.33,1.21.42,1.78.09.58.13.16.13.76,0,1.48-.29,1.97-.88,3.46l-.08.16.04.16c.2.69.37,1.38.49,2.08s.18,1.41.18,2.14c0,.62-.05,1.27-.15,1.92-.1.66-.23,1.33-.4,2v.24c.15.61.25,1.21.32,1.78.06.58.09,1.15.09,1.72,0,.84-.07,1.66-.22,2.44s-.38,1.55-.69,2.3l-.08.18.08.2s.06.15.18.37.34.46.64.72c.31.26.72.5,1.24.71s1.18.32,1.99.32,1.47-.1,2.01-.29c.54-.2.96-.42,1.27-.66.31-.24.54-.47.67-.68.14-.21.21-.33.22-.36l.08-.16-.08-.22c-.26-.69-.44-1.38-.55-2.07-.11-.68-.16-1.38-.16-2.09s.06-1.43.18-2.13.31-1.4.57-2.09l.08-.16-.08-.18c-.22-.58-.38-1.17-.48-1.77-.1-.6-.17-1.21-.19-1.85.42.76.78,1.55,1.07,2.36.29.81.52,1.68.68,2.61l.08.2c.96,1.24,1.7,2.48,2.2,3.75.5,1.26.79,2.59.85,3.97v.2l.16.12s.07.08.17.17c.1.09.25.18.44.26.19.09.43.17.71.25.29.07.61.11.98.11h.2c.31.22.7.39,1.16.52.46.13,1.02.19,1.67.19.79,0,1.45-.1,1.98-.29.53-.2.95-.42,1.26-.66.31-.24.54-.47.67-.68.14-.21.21-.33.22-.36l.08-.16-.08-.22c-.48-1.34-.71-2.7-.71-4.07,0-.72.06-1.44.19-2.16.13-.72.33-1.43.6-2.14v-.35c-.23-.65-.4-1.31-.51-1.97-.11-.67-.16-1.35-.16-2.06,0-1.37.21-2.78.63-4.21v-.29c-.16-.56-.29-.1-.38-.64-.09-.54-.13-1.08-.13-1.62,0-.72.07-1.44.21-2.16.14-.72.34-.46.58-1.22l.08-.25-.16-.22s-.1-.11-.26-.29Z"/>
      <path class="cls-1" d="m46.51,27.5c-.17-.81-.25-1.64-.25-2.48,0-1.13.16-2.28.49-3.46l.04-.16-.08-.16c-.67-1.57-1-3.22-1-4.93,0-1.06.13-2.15.39-3.28v-.31c-.5-1.3-.75-1.66-.75-3.07,0-1.15.16-1.33.49-2.54l.08-.3-.2-.2s-.1-.09-.24-.23c-.15-.14-.37-.29-.67-.46-.3-.16-.66-.31-1.09-.45-.43-.14-.93-.2-1.5-.2-.73,0-1.35.08-1.86.25-.51.17-.93.36-1.25.56-.33.2-.56.39-.71.57s-.23.27-.24.29l-.18.26.12.24c.27.73.47.45.6,1.16.13.71.19,1.42.19,2.14,0,.62-.04,1.24-.13,1.85-.09.61-.23.23-.44.85v.33c.31.81.55,1.65.71,2.49.16.85.24,1.71.24,2.6,0,.52-.02,1.02-.07,1.52-.05.5-.13.99-.23,1.5l.06.25c.12.42.22.84.31,1.25.08.41.16.82.22,1.21-.84.25-1.72.37-2.63.37-.3,0-.6-.02-.91-.05-.31-.03-.63-.07-.97-.11l-.33.08c-.53.19-1,.36-1.4.52s-.83.29-1.26.4c0-.69.08-1.37.25-2.04.17-.67.44-1.41.82-2.22v-.33c-.15-.52-.26-1.01-.33-1.49-.07-.47-.1-.95-.1-1.42,0-.73.08-1.48.24-2.24.16-.76.4-1.59.71-2.48v-.29c-.16-.83-.24-.65-.24-1.46s.08-1.69.25-2.54c.17-.85.44-.71.82-1.6l.12-.24-.16-.24s-.1-.12-.27-.33c-.17-.2-.43-.42-.77-.66-.35-.24-.78-.46-1.31-.65-.53-.2-1.15-.29-1.85-.29-.56,0-1.04.06-1.46.18s-.76.25-1.03.4-.48.28-.61.42-.21.21-.22.22l-.22.16.08.29c.23.95.35.87.35,1.75s-.11,1.79-.32,2.65c-.21.85-.53.71-.95,1.57l-.08.18.04.16c.14.54.24,1.06.32,1.55.07.49.11.97.11,1.45,0,.73-.08,1.47-.22,2.2-.15.73-.37,1.51-.65,2.32v.24c.07.43.12.84.15,1.22s.05.75.05,1.1c0,.88-.11,1.69-.32,2.43-.21.74-.53,1.54-.97,2.41l-.1.16.06.2s.03.11.09.25.16.32.31.52c.14.2.34.42.58.64.24.22.56.42.94.6.23.69.49,1.24.77,1.64.29.4.56.71.82.92.26.21.5.35.71.43.21.07.36.13.44.17l.2.04.16-.12c.58-.35,1.16-.63,1.74-.83.58-.2,1.16-.34,1.75-.43.59-.09,1.2-.14,1.83-.16.63-.02,1.29-.03,1.99-.03l.24-.04c.42-.23.83-.43,1.23-.6s.81-.32,1.23-.46c.09.14.23.29.4.47.17.18.4.35.68.51s.63.3,1.03.41c.4.11.88.16,1.44.16.9,0,1.63-.12,2.2-.35.57-.23,1.02-.49,1.35-.77.33-.29.56-.55.69-.78.13-.24.2-.36.21-.38l.08-.22-.08-.16c-.35-.81-.61-1.63-.78-2.44Z"/>
      <path class="cls-1" d="m120.79,10.31c-.05-.18-.11-.31-.15-.41-.05-.09-.07-.15-.07-.16l-.16-.24h-.26c-.71-.04-1.35-.12-1.93-.24-.58-.12-1.14-.3-1.67-.52-.53-.22-1.04-.5-1.54-.83-.5-.33-1.01-.73-1.56-1.19l-.18-.12h-.37c-.07,0-.14-.01-.2-.04-.62-.12-1.2-.25-1.73-.4s-1.03-.32-1.5-.53c-.47-.21-.92-.46-1.35-.74-.43-.29-.87-.62-1.3-1.02l-.16-.12h-.22s-.08.02-.27.05c-.2.03-.45.11-.75.23-.31.12-.63.31-.97.56-.34.25-.65.59-.92,1.03-.41.08-.87.45-1.17.59-.3.14-1.09.11-1.28.25-.19.14-.33.26-.43.37-.1.1-.15.16-.16.17l-.16.2.08.25c.1.31.36.6.6.89l-1.01,1.09s.14,2.16-.47,3.11c-.61.95-1.06,1.7-1.06,1.7l-2.22,2.31-1.6,2.31,1.73,2.86s2.45.97,2.28,1.8c-.17.84-.69,1.39-.81,1.88-.12.5,0,2.09,0,2.09l.61,1.98-.24.67-.05.98,1.43,1.38.96-.28c.07.1.16.21.27.33.2.21.45.42.77.63.32.21.72.38,1.21.5.33.45.66.79,1.01,1.04s.66.42.96.53c.29.11.53.17.72.19.19.02.3.03.33.03l.37-.16c.49-.48.98-.88,1.47-1.2.49-.33.99-.6,1.52-.83.52-.23,1.07-.42,1.65-.58.58-.16,1.2-.3,1.88-.44l.24-.12c1.9-1.7,4.23-2.71,7-3.03l.29-.04.14-.22s.09-.21.2-.55c.11-.34.16-.78.16-1.32,0-.31-.05-.7-.14-1.15-.1-.45-.26-.89-.49-1.31.07-.2.12-.41.15-.63.03-.22.05-.46.05-.73,0-.31-.02-.56-.06-.75-.04-.19-.06-.3-.06-.33l-.12-.27-.24-.08c-.94-.24-1.8-.58-2.59-1-.79-.42-1.53-.94-2.22-1.55,1.32-1,2.86-1.75,4.64-2.24l.24-.08.08-.26s.03-.15.1-.38c.07-.22.1-.53.1-.91,0-.18-.02-.38-.05-.59.21-.31.4-.67.56-1.12.12-.35.21-.68.25-.98s.07-.58.07-.86c0-.3-.02-.57-.07-.81s-.1-.45-.15-.63Zm-9.93,14.91c-.44.07-.88.12-1.31.15l-.2.04-.12.14-.31.24c-.19.15-.38.28-.56.39-.18.11-4.37.22-4.56.33.08-1.05.29-2.08.63-3.1.04-.02,1.16-.04,2.23-.06l2.44.18.24.12c.99.34,1.93.76,2.83,1.26-.43.12-.87.22-1.31.3Zm-6.11-2.01h.12c-.08,0-.13,0-.12,0Zm6.55-7.83c-.71.3-1.45-.45-2.24-.26l-.18.04-.12.16-4.8,1.09c.04-.23.3-.26.35-.5.05-.23.41-.19.47-.43l.28-.67c-.15-.48.19-.6.11-1.1s-.12-.99-.12-1.5c.42.19,3.86.42,4.3.67.45.26.94.54,1.47.83l.24.12c.83.08,1.59.2,2.28.37-.65.46-1.33.84-2.04,1.15Zm8.67-.44s.06-.1.09-.15c-.03.14-.06.28-.09.15Z"/>
      <path class="cls-1" d="m144.01,28.82c-.17-.81-.25-1.64-.25-2.48,0-1.13.16-2.28.49-3.46l.04-.16-.08-.16c-.67-1.57-1-3.22-1-4.93,0-1.06.13-1.15.39-2.28v-.31c-.5-1.3-.75-2.66-.75-4.07,0-1.15.16-2.33.49-3.54l.08-.31-.2-.2s-.1-.09-.24-.23c-.15-.14-.37-.29-.67-.46-.3-.16-.66-.31-1.09-.45-.43-.14-.93-.2-1.5-.2-.73,0-1.35.08-1.86.25-.51.17-.93.36-1.25.56-.33.2-.56.39-.71.57-.15.18-.23.27-.24.28l-.18.26.12.25c.27.73.47,1.45.6,2.16.13.71.19,1.42.19,2.14,0,.62-.04,1.24-.13,1.85-.09.61-.23.23-.44.85v.33c.31.81.55,1.65.71,2.49.16.85.24,1.71.24,2.6,0,.52-.02,1.02-.07,1.52s-.13.99-.23,1.5l.06.24c.12.42.22.84.31,1.25.08.41.16.82.22,1.21-.84.24-1.72.37-2.63.37-.3,0-.6-.02-.91-.05-.31-.03-.63-.07-.97-.11l-.33.08c-.53.19-1,.36-1.4.52s-.83.29-1.26.4c0-.69.08-1.37.25-2.04.17-.66.44-1.4.82-2.22v-.33c-.15-.52-.26-1.01-.33-1.49-.07-.47-.1-.95-.1-1.42,0-.73.08-1.48.24-2.24.15-.69.37-1.45.64-2.26-.1-.66-.17-1.32-.17-1.98,0-.84.08-1.69.25-2.54.17-.85.44-1.71.82-2.6l.12-.24-.16-.25s-.1-.12-.27-.33c-.17-.2-.43-.42-.77-.66-.35-.24-.78-.45-1.31-.65-.53-.2-1.15-.29-1.85-.29-.56,0-1.04.06-1.46.18s-.76.25-1.03.4-.48.28-.61.42c-.14.14-.21.21-.22.22l-.22.16.08.28c.23.95.35,1.87.35,2.75s-.11,1.79-.32,2.65c-.21.85-.53,1.71-.95,2.57l-.08.18.04.16c.14.54.24.06.32.55.07.49.11.97.11,1.45,0,.73-.08,1.47-.22,2.2-.15.73-.37,1.51-.65,2.32v.24c.07.43.12.84.15,1.22s.05.75.05,1.1c0,.88-.11,1.69-.32,2.43-.21.74-.53,1.54-.97,2.41l-.1.16.06.2s.03.11.09.25.16.32.31.52c.14.2.34.42.58.64.24.22.56.42.94.6.23.69.49,1.24.77,1.64.29.4.56.71.82.92.26.21.5.35.71.43.21.07.36.13.44.17l.2.04.16-.12c.58-.35,1.16-.63,1.74-.82.58-.2,1.16-.34,1.75-.43.59-.09,1.2-.14,1.83-.16.63-.02,1.29-.03,1.99-.03l.24-.04c.42-.23.83-.43,1.23-.6.4-.17.81-.32,1.23-.46.09.14.23.29.4.47.17.18.4.35.68.51s.63.3,1.03.41c.4.11.88.16,1.44.16.9,0,1.63-.12,2.2-.35.57-.23,1.02-.49,1.35-.77.33-.29.56-.55.69-.78.13-.24.2-.36.21-.38l.08-.22-.08-.16c-.35-.81-.61-1.63-.78-2.44Z"/>
      <path class="cls-1" d="m131.15,14.87c-.03.08-.05.15-.07.23.03.16.04.32.07.49v-.71Z"/>
      <path class="cls-1" d="m168.43,31.1c-.31-.72-.54-1.37-.67-1.96-.14-.58-.2-1.18-.2-1.79,0-.39.02-.82.07-1.28s.13-.96.23-1.49v-.29c-.26-.62-.45-1.18-.57-1.67-.12-.49-.18-.99-.18-1.51,0-.42.04-.87.11-1.33.07-.47.19-.99.34-1.58l.08-.24-.16-.16s-.12-.09-.27-.22-.37-.28-.65-.44c-.29-.16-.63-.29-1.05-.42-.41-.12-.89-.18-1.42-.18-.69,0-1.29.09-1.79.26-.5.18-.91.37-1.23.58-.32.21-.55.4-.7.58-.15.18-.22.27-.22.29l-.12.2.08.26c.27.69.47,1.3.6,1.83.13.53.19,1.06.19,1.59,0,.46-.04.93-.13,1.41-.09.47-.23,1-.42,1.59v.33c.04.15.08.29.11.42.03.13.06.25.09.38h-.79c-.38,0-.77-.02-1.16-.06-.39-.04-.81-.12-1.24-.22l-.18-.04-.16.08c-.07.04-.13.07-.18.09-.05.02-.12.04-.18.07-.29.1-.54.18-.76.26-.22.08-.44.16-.65.23-.21.07-.42.14-.64.19-.22.05-.46.1-.73.14.04-.65.17-1.28.38-1.88.21-.6.51-1.29.91-2.07l.08-.18-.04-.16c-.11-.48-.19-.93-.24-1.36-.05-.43-.08-.87-.08-1.3,0-.73.09-1.48.26-2.23.18-.75.46-1.59.86-2.51l.04-.12v-.18c-.07-.35-.12.31-.15,0-.03-.31-.05-.62-.05-.92v-.57c0-.19.01-.39.04-.59.34.08.67.17,1,.25.33.09.69.17,1.08.23l.31.04c.43-.11.84-.19,1.22-.25.38-.05.76-.08,1.14-.08.64,0,1.27.08,1.9.24s1.35.41,2.15.75l.24.08.26-.16s.1-.09.27-.24c.17-.15.36-.37.56-.66.2-.29.4-.67.58-1.12.18-.46.3-.99.34-1.6v-.33c0-.57-.06-1.06-.18-1.48-.12-.41-.25-.76-.4-1.03-.14-.27-.28-.48-.42-.61-.14-.13-.21-.21-.22-.22l-.16-.16-.24.04c-.48.12-.93.21-1.35.27-.43.06-.85.09-1.27.09-.69,0-1.37-.09-2.03-.27-.66-.18-1.39-.45-2.19-.8l-.16-.08-.18.04c-.35.12-.75.19-1.18.19-.43,0-.81,0-1.14,0-.8,0-1.56-.08-2.28-.23-.72-.16-1.43-.41-2.14-.76l-.18-.08-.2.08s-.16.05-.39.16c-.23.11-.49.32-.76.63-.28.31-.53.74-.75,1.29-.22.55-.34,1.26-.34,2.13,0,.65.07,1.21.21,1.66.14.46.32.82.52,1.09-.11.52-.26,1.03-.47,1.54s-.46,1.07-.77,1.68l-.08.12.04.2c.08.47.15-.07.2.37.05.44.08.87.08,1.29,0,.73-.08,1.47-.25,2.2-.17.73-.43,1.53-.78,2.38l-.04.26c.08.69.12,1.32.12,1.87,0,.48-.03.91-.09,1.31s-.15.79-.27,1.18c-.12.39-.28.78-.47,1.19-.19.41-.41.84-.67,1.3l-.08.18.04.2s.03.09.08.23.15.32.3.52c.14.2.33.42.57.66.24.24.54.46.91.66.07.69.25,1.26.56,1.7.31.44.62.79.95,1.04.33.25.61.42.85.52.24.09.35.14.31.12l.16.04.2-.08c.92-.48,1.87-.83,2.83-1.06.96-.23,1.95-.35,2.97-.35.28,0,.58.01.88.04.3.03.6.04.92.04l.12.04.16-.08c.38-.18.75-.33,1.11-.47.36-.14.72-.26,1.07-.37.11.12.25.25.43.4s.39.27.64.39c.25.12.55.21.89.29.34.08.73.12,1.16.12.9,0,1.63-.12,2.2-.36.57-.24,1.02-.5,1.35-.78.33-.28.56-.55.69-.78.13-.24.2-.36.21-.38l.04-.2-.08-.16Z"/>
      <path class="cls-1" d="m72.55,19.79c-1.38-.66-2.49-2.9-2.49-2.9l.08-.24-.16-.16s-.12-.09-.27-.22-.37-.28-.65-.44-.63-.3-1.05-.42c-.41-.12-.89-.18-1.42-.18-.69,0-1.29.09-1.79.26-.5.18-.91.37-1.23.58-.32.21-.55.4-.7.58-.15.18-.22.27-.22.29l.05.33.3.22c.27.69,1.4.71,1.53,1.24.13.53,1.33.73,1.33,1.26,0,.46.67.87.58,1.35-.09.47.08,1.61-.11,2.19l-1.4.73c.04.15-1.18.46-1.14.58.03.13-.76-.02-.73.1h-.79c-.38,0-.77-.02-1.16-.06-.39-.04-.81-.12-1.24-.22l-.18-.04-.16.08c-.07.04-.13.07-.18.09-.05.02-.12.04-.18.07-.29.1-.54.18-.76.26-.22.08-.44.16-.65.23-.21.08-.42.14-.64.19-.22.05-.46.1-.73.14.04-.65.17-1.28.38-1.88.21-.6.51-1.29.91-2.07l.08-.18-.04-.16c-.11-.47-.19-.93-.24-1.36-.05-.43-.08-.87-.08-1.3,0-.73.09-1.48.26-2.23.18-.75.46-1.59.86-2.51l.04-.12v-.18c-.07-.35-.12-.69-.15-1-.03-.31-.05.38-.05.08v-.57c0-.19.01-.39.04-.59.34.08.67.17,1,.25.33.09.69.17,1.08.23l.31.04c.43-.11.84-.19,1.22-.24.38-.05.76-.08,1.14-.08.64,0,1.27.08,1.9.24.63.16,1.35.42,2.15.75l.24.08s2.44.25,2.02-.19c-.26-.27-.2-1.69-.12-2.74.06-.27.09-.55.12-.86v-.33c0-.57-.06-.06-.18-.48-.12-.41-.25-.76-.4-1.03-.14-.27-.28-.47-.42-.61-.14-.14-.21-.21-.22-.22l-.16-.16-.24.04c-.48.12-.93.21-1.35.28-.43.06-.85.09-1.27.09-.69,0-1.37-.09-2.03-.27-.66-.18-1.39-.45-2.19-.8l-.16-.08-.18.04c-.35.12-.75.19-1.18.19-.43,0-.81,0-1.14,0-.8,0-1.56-.08-2.28-.23-.72-.16-1.43-.41-2.14-.76l-.18-.08-.2.08s-.16.05-.39.16c-.23.11-.49.32-.76.63-.28.31-.53.74-.75,1.29-.22.55-.34,1.26-.34,2.13,0,.65.07.21.21.66.14.46.32.82.52,1.09-.11.52-.26,1.03-.47,1.54-.2.51-.46.07-.77.68l-.08.12.04.2c.08.48.15.93.2,1.37.05.44.08.87.08,1.29,0,.73-.08,1.47-.25,2.2s-.43,1.53-.78,2.38l-.04.26c.08.69.12,1.32.12,1.87,0,.47-.03.91-.09,1.31-.06.4-.15.79-.27,1.18s-.28.78-.47,1.19c-.19.41-.41.84-.67,1.3l-.08.18.04.2s.03.09.08.23.15.32.3.52c.14.2.33.42.57.66.24.24.54.46.91.66.07.69.25,1.26.56,1.7.31.44.62.79.95,1.04.33.25.61.42.85.52.24.1.35.14.31.12l.16.04.2-.08c.92-.48,1.87-.83,2.83-1.06.96-.23,1.95-.35,2.97-.35.28,0,.58.01.88.04.3.03.6.04.92.04l.12.04.16-.08c.38-.18.75-.33,1.11-.47.36-.13.72-.26,1.07-.37.11.12.25.25.43.4s.39.27.64.39c.25.12.55.21.89.29.34.08.73.12,1.16.12.9,0,1.63-.12,2.2-.36.57-.24,1.02-.5,1.35-.78s.56-.55.69-.78c.13-.24.2-.36.21-.38,0,0,1.19-.18,2.95-1.28,1.76-1.1.94-4.24.83-5.06-.11-.83-.83-3.36-2.2-4.02Z"/>
    </g>
  </g>
</svg>