<svg width="26" height="26" viewBox="0 0 26 26" fill="none" xmlns="http://www.w3.org/2000/svg">
<path d="M7.19189 3.94003C8.87971 2.92903 10.8102 2.39478 12.7776 2.39417C14.4145 2.3932 16.0306 2.76172 17.5053 3.47225C18.9799 4.18279 20.2752 5.21701 21.2946 6.49782C22.3139 7.77864 23.031 9.27301 23.3924 10.8695C23.7538 12.4661 23.7502 14.1236 23.3818 15.7185C23.0134 17.3135 22.2898 18.8047 21.2649 20.0811C20.24 21.3574 18.9402 22.386 17.4625 23.0901C15.9847 23.7942 14.3671 24.1556 12.7302 24.1475C11.364 24.1408 10.0137 23.8767 8.74943 23.3717L2.15982 24.4689C1.78784 24.5309 1.4838 24.1745 1.60359 23.8169L3.33203 18.658C2.48489 17.1721 1.99831 15.5041 1.91657 13.7886C1.82294 11.8234 2.2641 9.86953 3.19308 8.13521C4.12206 6.40089 5.50406 4.95102 7.19189 3.94003Z" fill="#EBEFFF" stroke="#CDCFEC" stroke-width="3" stroke-linecap="round" stroke-linejoin="round"/>
<path d="M18.3035 13.9292C18.0665 13.9292 17.8743 13.737 17.8743 13.4999C17.8743 13.2629 18.0665 13.0707 18.3035 13.0707" stroke="#CDCFEC" stroke-width="3" stroke-linecap="round" stroke-linejoin="round"/>
<path d="M18.3037 13.9292C18.5407 13.9292 18.7329 13.737 18.7329 13.4999C18.7329 13.2629 18.5407 13.0707 18.3037 13.0707" stroke="#CDCFEC" stroke-width="3" stroke-linecap="round" stroke-linejoin="round"/>
<path d="M12.9466 13.9292C12.7095 13.9292 12.5173 13.737 12.5173 13.4999C12.5173 13.2629 12.7095 13.0707 12.9466 13.0707" stroke="#CDCFEC" stroke-width="3" stroke-linecap="round" stroke-linejoin="round"/>
<path d="M12.9467 13.9292C13.1838 13.9292 13.376 13.737 13.376 13.4999C13.376 13.2629 13.1838 13.0707 12.9467 13.0707" stroke="#CDCFEC" stroke-width="3" stroke-linecap="round" stroke-linejoin="round"/>
<path d="M7.58941 13.9292C7.35234 13.9292 7.16016 13.737 7.16016 13.4999C7.16016 13.2629 7.35234 13.0707 7.58941 13.0707" stroke="#CDCFEC" stroke-width="3" stroke-linecap="round" stroke-linejoin="round"/>
<path d="M7.58954 13.9292C7.82661 13.9292 8.0188 13.737 8.0188 13.4999C8.0188 13.2629 7.82661 13.0707 7.58954 13.0707" stroke="#CDCFEC" stroke-width="3" stroke-linecap="round" stroke-linejoin="round"/>
</svg>
