<svg width="17" height="18" viewBox="0 0 17 18" fill="none" xmlns="http://www.w3.org/2000/svg">
<path d="M8.5 0.5L9.7047 1.39381L11.1266 0.916019L11.9962 2.13836L13.4962 2.12336L13.9454 3.55457L15.3766 4.00383L15.3616 5.50382L16.584 6.37336L16.1062 7.7953L17 9L16.1062 10.2047L16.584 11.6266L15.3616 12.4962L15.3766 13.9962L13.9454 14.4454L13.4962 15.8766L11.9962 15.8616L11.1266 17.084L9.7047 16.6062L8.5 17.5L7.2953 16.6062L5.87336 17.084L5.00382 15.8616L3.50383 15.8766L3.05457 14.4454L1.62336 13.9962L1.63836 12.4962L0.416019 11.6266L0.893812 10.2047L0 9L0.893812 7.7953L0.416019 6.37336L1.63836 5.50382L1.62336 4.00383L3.05457 3.55457L3.50383 2.12336L5.00382 2.13836L5.87336 0.916019L7.2953 1.39381L8.5 0.5Z" fill="#6AC6FF"/>
<path d="M13.5374 6.28695C13.1985 6.43711 12.8345 6.53858 12.4517 6.58444C12.8466 6.34815 13.1421 5.97625 13.2829 5.53814C12.9119 5.75852 12.5059 5.91364 12.0824 5.99676C11.7977 5.69272 11.4205 5.49119 11.0095 5.42348C10.5984 5.35576 10.1766 5.42563 9.80931 5.62226C9.44206 5.81888 9.15001 6.13124 8.97848 6.51086C8.80696 6.89048 8.76556 7.3161 8.86072 7.72165C8.10895 7.68391 7.37351 7.48851 6.70214 7.14814C6.03077 6.80777 5.43847 6.33003 4.96368 5.74594C4.80134 6.02598 4.70799 6.35067 4.70799 6.69646C4.70781 7.00775 4.78447 7.31427 4.93116 7.58883C5.07786 7.86339 5.29006 8.09749 5.54893 8.27037C5.24871 8.26082 4.95511 8.1797 4.69257 8.03376V8.05811C4.69254 8.4947 4.84356 8.91787 5.12001 9.25579C5.39646 9.59372 5.78131 9.82559 6.20926 9.91206C5.93075 9.98744 5.63876 9.99854 5.35533 9.94453C5.47608 10.3202 5.71127 10.6487 6.02799 10.8841C6.34471 11.1194 6.7271 11.2498 7.12162 11.2571C6.45189 11.7828 5.62478 12.068 4.77333 12.0668C4.62251 12.0668 4.47181 12.058 4.32202 12.0404C5.18628 12.5961 6.19235 12.891 7.21984 12.8898C10.698 12.8898 12.5995 10.0091 12.5995 7.51061C12.5995 7.42944 12.5974 7.34745 12.5938 7.26628C12.9637 6.99881 13.2829 6.6676 13.5366 6.28816L13.5374 6.28695Z" fill="white"/>
</svg>
